<mxfile host="app.diagrams.net" modified="2023-12-25T07:01:40.752Z" agent="Mozilla/5.0 (Macintosh; Intel Mac OS X 10_15_7) AppleWebKit/605.1.15 (KHTML, like Gecko) Version/16.6 Safari/605.1.15" version="22.1.11" etag="wRCyWDZ4W9IFiiiYnu6V" type="github">
  <diagram name="Page-1" id="SqX8_as5UGxctWJVY1ZO">
    <mxGraphModel>
      <root>
        <mxCell id="0" />
        <mxCell id="1" parent="0" />
      </root>
    </mxGraphModel>
  </diagram>
</mxfile>
